<svg xmlns="http://www.w3.org/2000/svg" xmlns:svg="http://www.w3.org/2000/svg" id="svg2" width="480" height="336" version="1.1" viewBox="0 0 480 336" xml:space="preserve"><metadata id="metadata8"/><g id="g10" transform="matrix(1.3333333,0,0,-1.3333333,0,336)"><g id="g12" transform="scale(0.1)"><path id="path14" style="fill:none;stroke:#000;stroke-width:5;stroke-linecap:butt;stroke-linejoin:miter;stroke-miterlimit:10;stroke-dasharray:none;stroke-opacity:1" d="m 399,385 h 31.5 m 3050.5,0 h -31.5"/><g id="g16" transform="scale(10)"><text id="text20" style="font-variant:normal;font-weight:400;font-size:7px;font-family:Helvetica;-inkscape-font-specification:Helvetica;writing-mode:lr-tb;fill:#000;fill-opacity:1;fill-rule:nonzero;stroke:none" transform="matrix(1,0,0,-1,31.8085,36.1648)"><tspan id="tspan18" x="0" y="0">0</tspan></text></g><path id="path22" style="fill:none;stroke:#000;stroke-width:5;stroke-linecap:butt;stroke-linejoin:miter;stroke-miterlimit:10;stroke-dasharray:none;stroke-opacity:1" d="m 399,727 h 31.5 m 3050.5,0 h -31.5"/><g id="g24" transform="scale(10)"><text id="text28" style="font-variant:normal;font-weight:400;font-size:7px;font-family:Helvetica;-inkscape-font-specification:Helvetica;writing-mode:lr-tb;fill:#000;fill-opacity:1;fill-rule:nonzero;stroke:none" transform="matrix(1,0,0,-1,24.0249,70.3648)"><tspan id="tspan26" x="0 3.892 7.784" y="0">500</tspan></text></g><path id="path30" style="fill:none;stroke:#000;stroke-width:5;stroke-linecap:butt;stroke-linejoin:miter;stroke-miterlimit:10;stroke-dasharray:none;stroke-opacity:1" d="m 399,1068.5 h 31.5 m 3050.5,0 h -31.5"/><g id="g32" transform="scale(10)"><text id="text36" style="font-variant:normal;font-weight:400;font-size:7px;font-family:Helvetica;-inkscape-font-specification:Helvetica;writing-mode:lr-tb;fill:#000;fill-opacity:1;fill-rule:nonzero;stroke:none" transform="matrix(1,0,0,-1,20.1331,104.515)"><tspan id="tspan34" x="0 3.892 7.784 11.676" y="0">1000</tspan></text></g><path id="path38" style="fill:none;stroke:#000;stroke-width:5;stroke-linecap:butt;stroke-linejoin:miter;stroke-miterlimit:10;stroke-dasharray:none;stroke-opacity:1" d="m 399,1410.5 h 31.5 m 3050.5,0 h -31.5"/><g id="g40" transform="scale(10)"><text id="text44" style="font-variant:normal;font-weight:400;font-size:7px;font-family:Helvetica;-inkscape-font-specification:Helvetica;writing-mode:lr-tb;fill:#000;fill-opacity:1;fill-rule:nonzero;stroke:none" transform="matrix(1,0,0,-1,20.1331,138.715)"><tspan id="tspan42" x="0 3.892 7.784 11.676" y="0">1500</tspan></text></g><path id="path46" style="fill:none;stroke:#000;stroke-width:5;stroke-linecap:butt;stroke-linejoin:miter;stroke-miterlimit:10;stroke-dasharray:none;stroke-opacity:1" d="m 399,1752.5 h 31.5 m 3050.5,0 h -31.5"/><g id="g48" transform="scale(10)"><text id="text52" style="font-variant:normal;font-weight:400;font-size:7px;font-family:Helvetica;-inkscape-font-specification:Helvetica;writing-mode:lr-tb;fill:#000;fill-opacity:1;fill-rule:nonzero;stroke:none" transform="matrix(1,0,0,-1,20.1331,172.915)"><tspan id="tspan50" x="0 3.892 7.784 11.676" y="0">2000</tspan></text></g><path id="path54" style="fill:none;stroke:#000;stroke-width:5;stroke-linecap:butt;stroke-linejoin:miter;stroke-miterlimit:10;stroke-dasharray:none;stroke-opacity:1" d="m 399,2094 h 31.5 m 3050.5,0 h -31.5"/><g id="g56" transform="scale(10)"><text id="text60" style="font-variant:normal;font-weight:400;font-size:7px;font-family:Helvetica;-inkscape-font-specification:Helvetica;writing-mode:lr-tb;fill:#000;fill-opacity:1;fill-rule:nonzero;stroke:none" transform="matrix(1,0,0,-1,20.1331,207.065)"><tspan id="tspan58" x="0 3.892 7.784 11.676" y="0">2500</tspan></text></g><path id="path62" style="fill:none;stroke:#000;stroke-width:5;stroke-linecap:butt;stroke-linejoin:miter;stroke-miterlimit:10;stroke-dasharray:none;stroke-opacity:1" d="m 399,2436 h 31.5 m 3050.5,0 h -31.5"/><g id="g64" transform="scale(10)"><text id="text68" style="font-variant:normal;font-weight:400;font-size:7px;font-family:Helvetica;-inkscape-font-specification:Helvetica;writing-mode:lr-tb;fill:#000;fill-opacity:1;fill-rule:nonzero;stroke:none" transform="matrix(1,0,0,-1,20.1331,241.265)"><tspan id="tspan66" x="0 3.892 7.784 11.676" y="0">3000</tspan></text></g><path id="path70" style="fill:none;stroke:#000;stroke-width:5;stroke-linecap:butt;stroke-linejoin:miter;stroke-miterlimit:10;stroke-dasharray:none;stroke-opacity:1" d="m 757.5,385 v 31.5"/><g id="g72" transform="scale(10)"><text id="text76" style="font-variant:normal;font-weight:400;font-size:7px;font-family:Helvetica;-inkscape-font-specification:Helvetica;writing-mode:lr-tb;fill:#000;fill-opacity:1;fill-rule:nonzero;stroke:none" transform="matrix(1,0,0,-1,56.8824,29.1648)"><tspan id="tspan74" x="0 5.054 9.723 11.669 15.561 17.115 20.615 24.507 28.399 29.953 33.845" y="0">HA disabled</tspan></text></g><path id="path78" style="fill:none;stroke:#000;stroke-width:5;stroke-linecap:butt;stroke-linejoin:miter;stroke-miterlimit:10;stroke-dasharray:none;stroke-opacity:1" d="m 1474,385 v 31.5"/><g id="g80" transform="scale(10)"><text id="text86" style="font-variant:normal;font-weight:400;font-size:7px;font-family:Helvetica;-inkscape-font-specification:Helvetica;writing-mode:lr-tb;fill:#000;fill-opacity:1;fill-rule:nonzero;stroke:none" transform="matrix(1,0,0,-1,128.141,29.1648)"><tspan id="tspan82" x="0 5.054 9.723 11.669 15.561 19.453 23.345 27.237 28.791 32.683 36.575" y="0">HA enabled,</tspan><tspan id="tspan84" x="-7.584 -5.253 -1.361 2.531 6.423 8.754 10.308 14.2 18.092 20.038 23.93 25.484 28.984 32.876 36.768 38.322 42.214" y="7">redo-log disabled</tspan></text></g><path id="path88" style="fill:none;stroke:#000;stroke-width:5;stroke-linecap:butt;stroke-linejoin:miter;stroke-miterlimit:10;stroke-dasharray:none;stroke-opacity:1" d="m 2191,385 v 31.5"/><g id="g90" transform="scale(10)"><text id="text98" style="font-variant:normal;font-weight:400;font-size:7px;font-family:Helvetica;-inkscape-font-specification:Helvetica;writing-mode:lr-tb;fill:#000;fill-opacity:1;fill-rule:nonzero;stroke:none" transform="matrix(1,0,0,-1,199.841,29.1648)"><tspan id="tspan92" x="0 5.054 9.723 11.669 15.561 19.453 23.345 27.237 28.791 32.683 36.575" y="0">HA enabled,</tspan><tspan id="tspan94" x="-7.976 -5.645 -1.753 2.139 6.031 8.362 9.916 13.808 17.7 19.646 23.538 27.43 31.322 35.214 36.768 40.66 44.552" y="7">redo-log enabled,</tspan><tspan id="tspan96" x="-13.03 -11.476 -6.807 -1.753 2.916 4.862 6.808 10.7 14.592 18.092 19.646 23.146 27.038 28.984 32.876 36.768 40.66 42.214 44.16 48.052" y="14">iSCSI device healthy</tspan></text></g><path id="path100" style="fill:none;stroke:#000;stroke-width:5;stroke-linecap:butt;stroke-linejoin:miter;stroke-miterlimit:10;stroke-dasharray:none;stroke-opacity:1" d="m 2907.5,385 v 31.5"/><g id="g102" transform="scale(10)"><text id="text110" style="font-variant:normal;font-weight:400;font-size:7px;font-family:Helvetica;-inkscape-font-specification:Helvetica;writing-mode:lr-tb;fill:#000;fill-opacity:1;fill-rule:nonzero;stroke:none" transform="matrix(1,0,0,-1,271.491,29.1648)"><tspan id="tspan104" x="0 5.054 9.723 11.669 15.561 19.453 23.345 27.237 28.791 32.683 36.575" y="0">HA enabled,</tspan><tspan id="tspan106" x="-7.976 -5.645 -1.753 2.139 6.031 8.362 9.916 13.808 17.7 19.646 23.538 27.43 31.322 35.214 36.768 40.66 44.552" y="7">redo-log enabled,</tspan><tspan id="tspan108" x="-12.445 -10.891 -6.222 -1.168 3.501 5.447 7.393 11.285 15.177 18.677 20.231 23.731 27.623 29.569 33.461 35.792 39.684 43.184 47.076" y="14">iSCSI device broken</tspan></text></g><path id="path112" style="fill:none;stroke:#000;stroke-width:5;stroke-linecap:butt;stroke-linejoin:miter;stroke-miterlimit:10;stroke-dasharray:none;stroke-opacity:1" d="M 399,385 H 3481 V 2436 H 399 Z"/><g id="g114" transform="scale(10)"><text id="text118" style="font-variant:normal;font-weight:400;font-size:7px;font-family:Helvetica;-inkscape-font-specification:Helvetica;writing-mode:lr-tb;fill:#000;fill-opacity:1;fill-rule:nonzero;stroke:none" transform="matrix(0,1,1,0,10.0352,114.451)"><tspan id="tspan116" x="0 6.608 8.939 10.493 12.439 16.331 18.277 20.608 24.5 26.446 30.338 32.284 34.615 40.446 42" y="0">Write rate (min</tspan></text><text id="text122" style="font-variant:normal;font-weight:400;font-size:5.5999999px;font-family:Helvetica;-inkscape-font-specification:Helvetica;writing-mode:lr-tb;fill:#000;fill-opacity:1;fill-rule:nonzero;stroke:none" transform="matrix(0,1,1,0,6.5352,160.3432)"><tspan id="tspan120" x="0 1.865" y="0">-1</tspan></text><text id="text126" style="font-variant:normal;font-weight:400;font-size:7px;font-family:Helvetica;-inkscape-font-specification:Helvetica;writing-mode:lr-tb;fill:#000;fill-opacity:1;fill-rule:nonzero;stroke:none" transform="matrix(0,1,1,0,10.0352,165.32172)"><tspan id="tspan124" x="0" y="0">)</tspan></text><text id="text138" style="font-variant:normal;font-weight:400;font-size:7px;font-family:Helvetica;-inkscape-font-specification:Helvetica;writing-mode:lr-tb;fill:#000;fill-opacity:1;fill-rule:nonzero;stroke:none" transform="matrix(1,0,0,-1,173.187,1.16484)"><tspan id="tspan128" x="0 5.054 8.946 12.838 14.784 16.338 20.23 24.122 26.453 30.345 32.291 33.845 37.737" y="0">Configuration</tspan><tspan id="tspan130" x="-79.537 -75.645 -71.753 -67.861" y="-212.9">2602</tspan><tspan id="tspan132" x="-7.837 -3.945 -.053 3.839" y="-210.45">2566</tspan><tspan id="tspan134" x="63.813 67.705 71.597 75.489" y="-201.75">2439</tspan><tspan id="tspan136" x="135.513 139.405 143.297 147.189" y="-169.25">1964</tspan></text></g><path id="path140" style="fill:none;stroke:red;stroke-width:2.5;stroke-linecap:butt;stroke-linejoin:miter;stroke-miterlimit:10;stroke-dasharray:none;stroke-opacity:1" d="M 614,385 H 900.5 V 2164 H 614 Z"/><path id="path142" style="fill:none;stroke:red;stroke-width:2.5;stroke-linecap:butt;stroke-linejoin:miter;stroke-miterlimit:10;stroke-dasharray:none;stroke-opacity:1" d="m 1331,385 h 286.5 V 2139.5 H 1331 Z"/><path id="path144" style="fill:none;stroke:red;stroke-width:2.5;stroke-linecap:butt;stroke-linejoin:miter;stroke-miterlimit:10;stroke-dasharray:none;stroke-opacity:1" d="M 2047.5,385 H 2334 v 1667.5 h -286.5 z"/><path id="path146" style="fill:none;stroke:red;stroke-width:2.5;stroke-linecap:butt;stroke-linejoin:miter;stroke-miterlimit:10;stroke-dasharray:none;stroke-opacity:1" d="M 2764.5,385 H 3051 v 1342.5 h -286.5 z"/><path id="path148" style="fill:none;stroke:#0f0;stroke-width:2.5;stroke-linecap:butt;stroke-linejoin:miter;stroke-miterlimit:10;stroke-dasharray:none;stroke-opacity:1" d="m 757.5,2286.25 v 31.5"/><path id="path150" style="fill:none;stroke:#0f0;stroke-width:2.5;stroke-linecap:butt;stroke-linejoin:miter;stroke-miterlimit:10;stroke-dasharray:none;stroke-opacity:1" d="m 741.75,2302 h 31.5"/><path id="path152" style="fill:none;stroke:#0f0;stroke-width:2.5;stroke-linecap:butt;stroke-linejoin:miter;stroke-miterlimit:10;stroke-dasharray:none;stroke-opacity:1" d="m 757.5,2126.25 v 31.5"/><path id="path154" style="fill:none;stroke:#0f0;stroke-width:2.5;stroke-linecap:butt;stroke-linejoin:miter;stroke-miterlimit:10;stroke-dasharray:none;stroke-opacity:1" d="m 741.75,2142 h 31.5"/><path id="path156" style="fill:none;stroke:#0f0;stroke-width:2.5;stroke-linecap:butt;stroke-linejoin:miter;stroke-miterlimit:10;stroke-dasharray:none;stroke-opacity:1" d="m 757.5,2031.75 v 31.5"/><path id="path158" style="fill:none;stroke:#0f0;stroke-width:2.5;stroke-linecap:butt;stroke-linejoin:miter;stroke-miterlimit:10;stroke-dasharray:none;stroke-opacity:1" d="m 741.75,2047.5 h 31.5"/><path id="path160" style="fill:none;stroke:#0f0;stroke-width:2.5;stroke-linecap:butt;stroke-linejoin:miter;stroke-miterlimit:10;stroke-dasharray:none;stroke-opacity:1" d="m 1474,2191.75 v 31.5"/><path id="path162" style="fill:none;stroke:#0f0;stroke-width:2.5;stroke-linecap:butt;stroke-linejoin:miter;stroke-miterlimit:10;stroke-dasharray:none;stroke-opacity:1" d="m 1458.25,2207.5 h 31.5"/><path id="path164" style="fill:none;stroke:#0f0;stroke-width:2.5;stroke-linecap:butt;stroke-linejoin:miter;stroke-miterlimit:10;stroke-dasharray:none;stroke-opacity:1" d="m 1474,2055.25 v 31.5"/><path id="path166" style="fill:none;stroke:#0f0;stroke-width:2.5;stroke-linecap:butt;stroke-linejoin:miter;stroke-miterlimit:10;stroke-dasharray:none;stroke-opacity:1" d="m 1458.25,2071 h 31.5"/><path id="path168" style="fill:none;stroke:#0f0;stroke-width:2.5;stroke-linecap:butt;stroke-linejoin:miter;stroke-miterlimit:10;stroke-dasharray:none;stroke-opacity:1" d="m 2191,1929.25 v 31.5"/><path id="path170" style="fill:none;stroke:#0f0;stroke-width:2.5;stroke-linecap:butt;stroke-linejoin:miter;stroke-miterlimit:10;stroke-dasharray:none;stroke-opacity:1" d="m 2175.25,1945 h 31.5"/><path id="path172" style="fill:none;stroke:#0f0;stroke-width:2.5;stroke-linecap:butt;stroke-linejoin:miter;stroke-miterlimit:10;stroke-dasharray:none;stroke-opacity:1" d="m 2191,1918.25 v 31.5"/><path id="path174" style="fill:none;stroke:#0f0;stroke-width:2.5;stroke-linecap:butt;stroke-linejoin:miter;stroke-miterlimit:10;stroke-dasharray:none;stroke-opacity:1" d="m 2175.25,1934 h 31.5"/><path id="path176" style="fill:none;stroke:#0f0;stroke-width:2.5;stroke-linecap:butt;stroke-linejoin:miter;stroke-miterlimit:10;stroke-dasharray:none;stroke-opacity:1" d="m 2191,2156.25 v 31.5"/><path id="path178" style="fill:none;stroke:#0f0;stroke-width:2.5;stroke-linecap:butt;stroke-linejoin:miter;stroke-miterlimit:10;stroke-dasharray:none;stroke-opacity:1" d="m 2175.25,2172 h 31.5"/><path id="path180" style="fill:none;stroke:#0f0;stroke-width:2.5;stroke-linecap:butt;stroke-linejoin:miter;stroke-miterlimit:10;stroke-dasharray:none;stroke-opacity:1" d="m 2191,2064.75 v 31.5"/><path id="path182" style="fill:none;stroke:#0f0;stroke-width:2.5;stroke-linecap:butt;stroke-linejoin:miter;stroke-miterlimit:10;stroke-dasharray:none;stroke-opacity:1" d="m 2175.25,2080.5 h 31.5"/><path id="path184" style="fill:none;stroke:#0f0;stroke-width:2.5;stroke-linecap:butt;stroke-linejoin:miter;stroke-miterlimit:10;stroke-dasharray:none;stroke-opacity:1" d="m 2191,2113.75 v 31.5"/><path id="path186" style="fill:none;stroke:#0f0;stroke-width:2.5;stroke-linecap:butt;stroke-linejoin:miter;stroke-miterlimit:10;stroke-dasharray:none;stroke-opacity:1" d="m 2175.25,2129.5 h 31.5"/><path id="path188" style="fill:none;stroke:#0f0;stroke-width:2.5;stroke-linecap:butt;stroke-linejoin:miter;stroke-miterlimit:10;stroke-dasharray:none;stroke-opacity:1" d="m 2907.5,1696.75 v 31.5"/><path id="path190" style="fill:none;stroke:#0f0;stroke-width:2.5;stroke-linecap:butt;stroke-linejoin:miter;stroke-miterlimit:10;stroke-dasharray:none;stroke-opacity:1" d="m 2891.75,1712.5 h 31.5"/><path id="path192" style="fill:none;stroke:#0f0;stroke-width:2.5;stroke-linecap:butt;stroke-linejoin:miter;stroke-miterlimit:10;stroke-dasharray:none;stroke-opacity:1" d="m 2907.5,1711.75 v 31.5"/><path id="path194" style="fill:none;stroke:#0f0;stroke-width:2.5;stroke-linecap:butt;stroke-linejoin:miter;stroke-miterlimit:10;stroke-dasharray:none;stroke-opacity:1" d="m 2891.75,1727.5 h 31.5"/><path id="path196" style="fill:none;stroke:#0f0;stroke-width:2.5;stroke-linecap:butt;stroke-linejoin:miter;stroke-miterlimit:10;stroke-dasharray:none;stroke-opacity:1" d="m 2907.5,1727.25 v 31.5"/><path id="path198" style="fill:none;stroke:#0f0;stroke-width:2.5;stroke-linecap:butt;stroke-linejoin:miter;stroke-miterlimit:10;stroke-dasharray:none;stroke-opacity:1" d="m 2891.75,1743 h 31.5"/><path id="path200" style="fill:none;stroke:#000;stroke-width:5;stroke-linecap:butt;stroke-linejoin:miter;stroke-miterlimit:10;stroke-dasharray:none;stroke-opacity:1" d="M 399,385 H 3481 V 2436 H 399 Z"/></g></g></svg>